<svg width="192" height="192" viewBox="0 0 192 192" xmlns="http://www.w3.org/2000/svg">
  <!-- 背景 -->
  <rect width="192" height="192" rx="38" fill="#4F46E5"/>
  
  <!-- 縦書きの原稿用紙をイメージした縦線 -->
  <rect x="40" y="32" width="8" height="128" fill="white"/>
  <rect x="72" y="32" width="8" height="128" fill="white"/>
  <rect x="104" y="32" width="8" height="128" fill="white"/>
  <rect x="136" y="32" width="8" height="128" fill="white"/>
  
  <!-- 横線で文字を表現 -->
  <rect x="36" y="56" width="16" height="5" fill="white"/>
  <rect x="68" y="56" width="16" height="5" fill="white"/>
  <rect x="100" y="56" width="16" height="5" fill="white"/>
  <rect x="132" y="56" width="16" height="5" fill="white"/>
  
  <rect x="36" y="80" width="16" height="5" fill="white"/>
  <rect x="68" y="80" width="16" height="5" fill="white"/>
  <rect x="100" y="80" width="16" height="5" fill="white"/>
  <rect x="132" y="80" width="16" height="5" fill="white"/>
  
  <rect x="36" y="104" width="16" height="5" fill="white"/>
  <rect x="68" y="104" width="16" height="5" fill="white"/>
  <rect x="100" y="104" width="16" height="5" fill="white"/>
  <rect x="132" y="104" width="16" height="5" fill="white"/>
  
  <rect x="36" y="128" width="16" height="5" fill="white"/>
  <rect x="68" y="128" width="16" height="5" fill="white"/>
  <rect x="100" y="128" width="16" height="5" fill="white"/>
  <rect x="132" y="128" width="16" height="5" fill="white"/>
</svg>
