<svg width="512" height="512" viewBox="0 0 512 512" xmlns="http://www.w3.org/2000/svg">
  <!-- 背景 -->
  <rect width="512" height="512" rx="102" fill="#4F46E5"/>
  
  <!-- 縦書きの原稿用紙をイメージした縦線 -->
  <rect x="100" y="80" width="20" height="352" fill="white"/>
  <rect x="180" y="80" width="20" height="352" fill="white"/>
  <rect x="260" y="80" width="20" height="352" fill="white"/>
  <rect x="340" y="80" width="20" height="352" fill="white"/>
  <rect x="420" y="80" width="20" height="352" fill="white"/>
  
  <!-- 横線で文字を表現 -->
  <rect x="90" y="140" width="40" height="12" fill="white"/>
  <rect x="170" y="140" width="40" height="12" fill="white"/>
  <rect x="250" y="140" width="40" height="12" fill="white"/>
  <rect x="330" y="140" width="40" height="12" fill="white"/>
  <rect x="410" y="140" width="40" height="12" fill="white"/>
  
  <rect x="90" y="200" width="40" height="12" fill="white"/>
  <rect x="170" y="200" width="40" height="12" fill="white"/>
  <rect x="250" y="200" width="40" height="12" fill="white"/>
  <rect x="330" y="200" width="40" height="12" fill="white"/>
  <rect x="410" y="200" width="40" height="12" fill="white"/>
  
  <rect x="90" y="260" width="40" height="12" fill="white"/>
  <rect x="170" y="260" width="40" height="12" fill="white"/>
  <rect x="250" y="260" width="40" height="12" fill="white"/>
  <rect x="330" y="260" width="40" height="12" fill="white"/>
  <rect x="410" y="260" width="40" height="12" fill="white"/>
  
  <rect x="90" y="320" width="40" height="12" fill="white"/>
  <rect x="170" y="320" width="40" height="12" fill="white"/>
  <rect x="250" y="320" width="40" height="12" fill="white"/>
  <rect x="330" y="320" width="40" height="12" fill="white"/>
  <rect x="410" y="320" width="40" height="12" fill="white"/>
  
  <rect x="90" y="380" width="40" height="12" fill="white"/>
  <rect x="170" y="380" width="40" height="12" fill="white"/>
  <rect x="250" y="380" width="40" height="12" fill="white"/>
  <rect x="330" y="380" width="40" height="12" fill="white"/>
  <rect x="410" y="380" width="40" height="12" fill="white"/>
</svg>
