<svg width="180" height="180" viewBox="0 0 180 180" xmlns="http://www.w3.org/2000/svg">
  <!-- 背景 -->
  <rect width="180" height="180" rx="36" fill="#4F46E5"/>
  
  <!-- 縦書きの原稿用紙をイメージした縦線 -->
  <rect x="40" y="30" width="6" height="120" fill="white"/>
  <rect x="70" y="30" width="6" height="120" fill="white"/>
  <rect x="100" y="30" width="6" height="120" fill="white"/>
  <rect x="130" y="30" width="6" height="120" fill="white"/>
  
  <!-- 横線で文字を表現 -->
  <rect x="35" y="50" width="16" height="4" fill="white"/>
  <rect x="65" y="50" width="16" height="4" fill="white"/>
  <rect x="95" y="50" width="16" height="4" fill="white"/>
  <rect x="125" y="50" width="16" height="4" fill="white"/>
  
  <rect x="35" y="70" width="16" height="4" fill="white"/>
  <rect x="65" y="70" width="16" height="4" fill="white"/>
  <rect x="95" y="70" width="16" height="4" fill="white"/>
  <rect x="125" y="70" width="16" height="4" fill="white"/>
  
  <rect x="35" y="90" width="16" height="4" fill="white"/>
  <rect x="65" y="90" width="16" height="4" fill="white"/>
  <rect x="95" y="90" width="16" height="4" fill="white"/>
  <rect x="125" y="90" width="16" height="4" fill="white"/>
  
  <rect x="35" y="110" width="16" height="4" fill="white"/>
  <rect x="65" y="110" width="16" height="4" fill="white"/>
  <rect x="95" y="110" width="16" height="4" fill="white"/>
  <rect x="125" y="110" width="16" height="4" fill="white"/>
  
  <rect x="35" y="130" width="16" height="4" fill="white"/>
  <rect x="65" y="130" width="16" height="4" fill="white"/>
  <rect x="95" y="130" width="16" height="4" fill="white"/>
  <rect x="125" y="130" width="16" height="4" fill="white"/>
</svg>
